<?xml version="1.0" encoding="UTF-8" standalone="no"?>
<!-- Created with Inkscape (http://www.inkscape.org/) -->

<svg
   sodipodi:docname="ink box.svg"
   id="svg12"
   version="1.1"
   viewBox="0 0 210 297"
   height="297mm"
   width="210mm"
   inkscape:version="1.1.1 (3bf5ae0d25, 2021-09-20)"
   xmlns:inkscape="http://www.inkscape.org/namespaces/inkscape"
   xmlns:sodipodi="http://sodipodi.sourceforge.net/DTD/sodipodi-0.dtd"
   xmlns="http://www.w3.org/2000/svg"
   xmlns:svg="http://www.w3.org/2000/svg">
  <sodipodi:namedview
     id="namedview14"
     pagecolor="#ffffff"
     bordercolor="#666666"
     borderopacity="1.0"
     inkscape:pageshadow="2"
     inkscape:pageopacity="0.0"
     inkscape:pagecheckerboard="0"
     inkscape:document-units="mm"
     showgrid="false"
     inkscape:zoom="0.9700894"
     inkscape:cx="294.30277"
     inkscape:cy="336.0515"
     inkscape:window-width="1920"
     inkscape:window-height="974"
     inkscape:window-x="-11"
     inkscape:window-y="-11"
     inkscape:window-maximized="1"
     inkscape:current-layer="panel1334" />
  <defs
     id="defs9">
    <rect
       x="465.93644"
       y="136.06993"
       width="354.60649"
       height="68.034967"
       id="rect10714" />
  </defs>
  <g
     inkscape:label="Layer 1"
     inkscape:groupmode="layer"
     id="layer1">
    <g
       id="panel1334">
      <g
         id="panel5899">
        <path
           style="fill:none;stroke:#000000;stroke-width:1"
           d="M 100.4 201.9 L 111.1 201.9 L 111.1 198.8 L 121.3 198.8 L 121.3 201.9 L 131.9 201.9 L 131.9 198.8 L 142.1 198.8 L 142.1 201.9 L 152.7 201.9 L 152.7 198.8 L 162.9 198.8 L 162.9 201.9 L 173.5 201.9 L 173.5 198.8 L 183.7 198.8 L 183.7 201.9 L 194.3 201.9 L 194.3 198.8 L 204.5 198.8 L 204.5 201.9 L 215.1 201.9 L 215.1 198.8 L 225.3 198.8 L 225.3 201.9 L 235.9 201.9 L 235.9 198.8 L 246.1 198.8 L 246.1 201.9 L 256.8 201.9"
           id="path405" />
        <path
           style="fill:none;stroke:#000000;stroke-width:1"
           d="M 256.8 201.9 L 256.8 210.18 L 253.7 210.18 L 253.7 219.98 L 256.8 219.98 L 256.8 231.46 L 253.7 231.46 L 253.7 241.26 L 256.8 241.26 L 256.8 252.74 L 253.7 252.74 L 253.7 262.54 L 256.8 262.54 L 256.8 274.02 L 253.7 274.02 L 253.7 283.82 L 256.8 283.82 L 256.8 292.1"
           id="path407" />
        <path
           style="fill:none;stroke:#000000;stroke-width:1"
           d="M 256.8 292.1 L 246.1 292.1 L 246.1 295.2 L 235.9 295.2 L 235.9 292.1 L 225.3 292.1 L 225.3 295.2 L 215.1 295.2 L 215.1 292.1 L 204.5 292.1 L 204.5 295.2 L 194.3 295.2 L 194.3 292.1 L 183.7 292.1 L 183.7 295.2 L 173.5 295.2 L 173.5 292.1 L 162.9 292.1 L 162.9 295.2 L 152.7 295.2 L 152.7 292.1 L 142.1 292.1 L 142.1 295.2 L 131.9 295.2 L 131.9 292.1 L 121.3 292.1 L 121.3 295.2 L 111.1 295.2 L 111.1 292.1 L 100.4 292.1"
           id="path409" />
        <path
           style="fill:none;stroke:#000000;stroke-width:1"
           d="m 100.4,292.1 v -8.28 h 3.1 v -9.8 l -5.009188,0.0682 L 100.4,262.54 h 3.1 v -9.8 h -3.1 v -11.48 h 3.1 v -9.8 h -3.1 v -11.48 h 3.1 v -9.8 h -3.1 v -8.28"
           id="path411"
           sodipodi:nodetypes="cccccccccccccccccc" />
      </g>
      <g
         id="panel7716">
        <path
           style="fill:none;stroke:#000000;stroke-width:1"
           d="M 5.1 103.5 L 13.18 103.5 L 13.18 100.4 L 23.38 100.4 L 23.38 103.5 L 34.46 103.5 L 34.46 100.4 L 44.66 100.4 L 44.66 103.5 L 55.74 103.5 L 55.74 100.4 L 65.94 100.4 L 65.94 103.5 L 77.02 103.5 L 77.02 100.4 L 87.22 100.4 L 87.22 103.5 L 95.3 103.5"
           id="path414" />
        <path
           style="fill:none;stroke:#000000;stroke-width:1"
           d="M 95.3 103.5 L 95.3 111.58 L 98.4 111.58 L 98.4 121.78 L 95.3 121.78 L 95.3 132.86 L 98.4 132.86 L 98.4 143.06 L 95.3 143.06 L 95.3 154.14 L 98.4 154.14 L 98.4 164.34 L 95.3 164.34 L 95.3 175.42 L 98.4 175.42 L 98.4 185.62 L 95.3 185.62 L 95.3 193.7"
           id="path416" />
        <path
           style="fill:none;stroke:#000000;stroke-width:1"
           d="M 95.3 193.7 L 87.22 193.7 L 87.22 196.8 L 77.02 196.8 L 77.02 193.7 L 65.94 193.7 L 65.94 196.8 L 55.74 196.8 L 55.74 193.7 L 44.66 193.7 L 44.66 196.8 L 34.46 196.8 L 34.46 193.7 L 23.38 193.7 L 23.38 196.8 L 13.18 196.8 L 13.18 193.7 L 5.1 193.7"
           id="path418" />
        <path
           style="fill:none;stroke:#000000;stroke-width:1"
           d="M 5.1 193.7 L 5.1 185.62 L 2 185.62 L 2 175.42 L 5.1 175.42 L 5.1 164.34 L 2 164.34 L 2 154.14 L 5.1 154.14 L 5.1 143.06 L 2 143.06 L 2 132.86 L 5.1 132.86 L 5.1 121.78 L 2 121.78 L 2 111.58 L 5.1 111.58 L 5.1 103.5"
           id="path420" />
      </g>
      <g
         id="panel401">
        <path
           style="fill:none;stroke:#000000;stroke-width:1"
           d="M 100.4 100.4 L 111.3 100.4 L 111.3 103.5 L 121.1 103.5 L 121.1 100.4 L 132.1 100.4 L 132.1 103.5 L 141.9 103.5 L 141.9 100.4 L 152.9 100.4 L 152.9 103.5 L 162.7 103.5 L 162.7 100.4 L 173.7 100.4 L 173.7 103.5 L 183.5 103.5 L 183.5 100.4 L 194.5 100.4 L 194.5 103.5 L 204.3 103.5 L 204.3 100.4 L 215.3 100.4 L 215.3 103.5 L 225.1 103.5 L 225.1 100.4 L 236.1 100.4 L 236.1 103.5 L 245.9 103.5 L 245.9 100.4 L 256.8 100.4"
           id="path423" />
        <path
           style="fill:none;stroke:#000000;stroke-width:1"
           d="M 256.8 100.4 L 256.8 111.78 L 253.7 111.78 L 253.7 121.58 L 256.8 121.58 L 256.8 133.06 L 253.7 133.06 L 253.7 142.86 L 256.8 142.86 L 256.8 154.34 L 253.7 154.34 L 253.7 164.14 L 256.8 164.14 L 256.8 175.62 L 253.7 175.62 L 253.7 185.42 L 256.8 185.42 L 256.8 196.8"
           id="path425" />
        <path
           style="fill:none;stroke:#000000;stroke-width:1"
           d="M 256.8 196.8 L 245.9 196.8 L 245.9 193.7 L 236.1 193.7 L 236.1 196.8 L 225.1 196.8 L 225.1 193.7 L 215.3 193.7 L 215.3 196.8 L 204.3 196.8 L 204.3 193.7 L 194.5 193.7 L 194.5 196.8 L 183.5 196.8 L 183.5 193.7 L 173.7 193.7 L 173.7 196.8 L 162.7 196.8 L 162.7 193.7 L 152.9 193.7 L 152.9 196.8 L 141.9 196.8 L 141.9 193.7 L 132.1 193.7 L 132.1 196.8 L 121.1 196.8 L 121.1 193.7 L 111.3 193.7 L 111.3 196.8 L 100.4 196.8"
           id="path427" />
        <path
           style="fill:none;stroke:#000000;stroke-width:1"
           d="M 100.4 196.8 L 100.4 185.42 L 103.5 185.42 L 103.5 175.62 L 100.4 175.62 L 100.4 164.14 L 103.5 164.14 L 103.5 154.34 L 100.4 154.34 L 100.4 142.86 L 103.5 142.86 L 103.5 133.06 L 100.4 133.06 L 100.4 121.58 L 103.5 121.58 L 103.5 111.78 L 100.4 111.78 L 100.4 100.4"
           id="path429" />
      </g>
      <g
         id="panel2656">
        <path
           style="fill:none;stroke:#000000;stroke-width:1"
           d="M 261.9 103.5 L 269.98 103.5 L 269.98 100.4 L 280.18 100.4 L 280.18 103.5 L 291.26 103.5 L 291.26 100.4 L 301.46 100.4 L 301.46 103.5 L 312.54 103.5 L 312.54 100.4 L 322.74 100.4 L 322.74 103.5 L 333.82 103.5 L 333.82 100.4 L 344.02 100.4 L 344.02 103.5 L 352.1 103.5"
           id="path432" />
        <path
           style="fill:none;stroke:#000000;stroke-width:1"
           d="M 352.1 103.5 L 352.1 111.58 L 355.2 111.58 L 355.2 121.78 L 352.1 121.78 L 352.1 132.86 L 355.2 132.86 L 355.2 143.06 L 352.1 143.06 L 352.1 154.14 L 355.2 154.14 L 355.2 164.34 L 352.1 164.34 L 352.1 175.42 L 355.2 175.42 L 355.2 185.62 L 352.1 185.62 L 352.1 193.7"
           id="path434" />
        <path
           style="fill:none;stroke:#000000;stroke-width:1"
           d="M 352.1 193.7 L 344.02 193.7 L 344.02 196.8 L 333.82 196.8 L 333.82 193.7 L 322.74 193.7 L 322.74 196.8 L 312.54 196.8 L 312.54 193.7 L 301.46 193.7 L 301.46 196.8 L 291.26 196.8 L 291.26 193.7 L 280.18 193.7 L 280.18 196.8 L 269.98 196.8 L 269.98 193.7 L 261.9 193.7"
           id="path436" />
        <path
           style="fill:none;stroke:#000000;stroke-width:1"
           d="M 261.9 193.7 L 261.9 185.62 L 258.8 185.62 L 258.8 175.42 L 261.9 175.42 L 261.9 164.34 L 258.8 164.34 L 258.8 154.14 L 261.9 154.14 L 261.9 143.06 L 258.8 143.06 L 258.8 132.86 L 261.9 132.86 L 261.9 121.78 L 258.8 121.78 L 258.8 111.58 L 261.9 111.58 L 261.9 103.5"
           id="path438" />
      </g>
      <g
         id="panel6917">
        <path
           style="fill:none;stroke:#000000;stroke-width:1"
           d="M 357.2 100.4 L 368.1 100.4 L 368.1 103.5 L 377.9 103.5 L 377.9 100.4 L 388.9 100.4 L 388.9 103.5 L 398.7 103.5 L 398.7 100.4 L 409.7 100.4 L 409.7 103.5 L 419.5 103.5 L 419.5 100.4 L 430.5 100.4 L 430.5 103.5 L 440.3 103.5 L 440.3 100.4 L 451.3 100.4 L 451.3 103.5 L 461.1 103.5 L 461.1 100.4 L 472.1 100.4 L 472.1 103.5 L 481.9 103.5 L 481.9 100.4 L 492.9 100.4 L 492.9 103.5 L 502.7 103.5 L 502.7 100.4 L 513.6 100.4"
           id="path441" />
        <path
           style="fill:none;stroke:#000000;stroke-width:1"
           d="M 513.6 100.4 L 513.6 111.78 L 510.5 111.78 L 510.5 121.58 L 513.6 121.58 L 513.6 133.06 L 510.5 133.06 L 510.5 142.86 L 513.6 142.86 L 513.6 154.34 L 510.5 154.34 L 510.5 164.14 L 513.6 164.14 L 513.6 175.62 L 510.5 175.62 L 510.5 185.42 L 513.6 185.42 L 513.6 196.8"
           id="path443" />
        <path
           style="fill:none;stroke:#000000;stroke-width:1"
           d="M 513.6 196.8 L 502.7 196.8 L 502.7 193.7 L 492.9 193.7 L 492.9 196.8 L 481.9 196.8 L 481.9 193.7 L 472.1 193.7 L 472.1 196.8 L 461.1 196.8 L 461.1 193.7 L 451.3 193.7 L 451.3 196.8 L 440.3 196.8 L 440.3 193.7 L 430.5 193.7 L 430.5 196.8 L 419.5 196.8 L 419.5 193.7 L 409.7 193.7 L 409.7 196.8 L 398.7 196.8 L 398.7 193.7 L 388.9 193.7 L 388.9 196.8 L 377.9 196.8 L 377.9 193.7 L 368.1 193.7 L 368.1 196.8 L 357.2 196.8"
           id="path445" />
        <path
           style="fill:none;stroke:#000000;stroke-width:1"
           d="M 357.2 196.8 L 357.2 185.42 L 360.3 185.42 L 360.3 175.62 L 357.2 175.62 L 357.2 164.14 L 360.3 164.14 L 360.3 154.34 L 357.2 154.34 L 357.2 142.86 L 360.3 142.86 L 360.3 133.06 L 357.2 133.06 L 357.2 121.58 L 360.3 121.58 L 360.3 111.78 L 357.2 111.78 L 357.2 100.4"
           id="path447" />
      </g>
      <g
         id="panel6006">
        <path
           style="fill:none;stroke:#000000;stroke-width:1"
           d="M 100.4 5.1 L 111.1 5.1 L 111.1 2 L 121.3 2 L 121.3 5.1 L 131.9 5.1 L 131.9 2 L 142.1 2 L 142.1 5.1 L 152.7 5.1 L 152.7 2 L 162.9 2 L 162.9 5.1 L 173.5 5.1 L 173.5 2 L 183.7 2 L 183.7 5.1 L 194.3 5.1 L 194.3 2 L 204.5 2 L 204.5 5.1 L 215.1 5.1 L 215.1 2 L 225.3 2 L 225.3 5.1 L 235.9 5.1 L 235.9 2 L 246.1 2 L 246.1 5.1 L 256.8 5.1"
           id="path450" />
        <path
           style="fill:none;stroke:#000000;stroke-width:1"
           d="M 256.8 5.1 L 256.8 13.38 L 253.7 13.38 L 253.7 23.18 L 256.8 23.18 L 256.8 34.66 L 253.7 34.66 L 253.7 44.46 L 256.8 44.46 L 256.8 55.94 L 253.7 55.94 L 253.7 65.74 L 256.8 65.74 L 256.8 77.22 L 253.7 77.22 L 253.7 87.02 L 256.8 87.02 L 256.8 95.3"
           id="path452" />
        <path
           style="fill:none;stroke:#000000;stroke-width:1"
           d="M 256.8 95.3 L 246.1 95.3 L 246.1 98.4 L 235.9 98.4 L 235.9 95.3 L 225.3 95.3 L 225.3 98.4 L 215.1 98.4 L 215.1 95.3 L 204.5 95.3 L 204.5 98.4 L 194.3 98.4 L 194.3 95.3 L 183.7 95.3 L 183.7 98.4 L 173.5 98.4 L 173.5 95.3 L 162.9 95.3 L 162.9 98.4 L 152.7 98.4 L 152.7 95.3 L 142.1 95.3 L 142.1 98.4 L 131.9 98.4 L 131.9 95.3 L 121.3 95.3 L 121.3 98.4 L 111.1 98.4 L 111.1 95.3 L 100.4 95.3"
           id="path454" />
        <path
           style="fill:none;stroke:#000000;stroke-width:1"
           d="M 100.4 95.3 L 100.4 87.02 L 103.5 87.02 L 103.5 77.22 L 100.4 77.22 L 100.4 65.74 L 103.5 65.74 L 103.5 55.94 L 100.4 55.94 L 100.4 44.46 L 103.5 44.46 L 103.5 34.66 L 100.4 34.66 L 100.4 23.18 L 103.5 23.18 L 103.5 13.38 L 100.4 13.38 L 100.4 5.1"
           id="path456" />
      </g>
      <path
         id="path604"
         style="fill:#ffffff;stroke:#000000;stroke-width:0.239351"
         d="M 60.862319,148.83913 A 10.380324,10.380324 0 0 1 50.481995,159.21945 10.380324,10.380324 0 0 1 40.10167,148.83913 10.380324,10.380324 0 0 1 50.481995,138.4588 10.380324,10.380324 0 0 1 60.862319,148.83913 Z" />
      <circle
         style="fill:#ffffff;stroke:#000000;stroke-width:0.370541;stroke-opacity:1"
         id="path1545"
         cx="390.06052"
         cy="149.18198"
         r="11.81473" />
      <path
         id="path1547"
         style="fill:#ffffff;stroke:#000000;stroke-width:0.397377"
         d="m 434.84043,148.60342 a 11.801311,11.801311 0 0 1 -11.80131,11.80131 11.801311,11.801311 0 0 1 -11.80131,-11.80131 11.801311,11.801311 0 0 1 11.80131,-11.80131 11.801311,11.801311 0 0 1 11.80131,11.80131 z" />
      <path
         id="path1549"
         style="fill:#ffffff;stroke:#000000;stroke-width:0.585691"
         d="m 468.11054,148.60344 a 11.707154,11.707154 0 0 1 -11.70716,11.70715 11.707154,11.707154 0 0 1 -11.70715,-11.70715 11.707154,11.707154 0 0 1 11.70715,-11.70715 11.707154,11.707154 0 0 1 11.70716,11.70715 z" />
      <path
         id="path1551"
         style="fill:#ffffff;stroke:#000000;stroke-width:0.601307"
         d="m 498.95994,148.7963 a 11.699347,11.699347 0 0 1 -11.69935,11.69934 11.699347,11.699347 0 0 1 -11.69935,-11.69934 11.699347,11.699347 0 0 1 11.69935,-11.69935 11.699347,11.699347 0 0 1 11.69935,11.69935 z" />
      <g
         aria-label="Ivan"
         transform="matrix(0.42244691,0,0,0.39320233,-27.065177,-14.363329)"
         id="text10712"
         style="font-size:40px;line-height:1.25;white-space:pre;shape-inside:url(#rect10714)">
        <path
           d="m 480.0957,172.56353 h -11.48437 v -2.96875 h 3.80859 v -23.14454 h -3.80859 v -2.96875 h 11.48437 v 2.96875 h -3.80859 v 23.14454 h 3.80859 z"
           id="path13046" />
        <path
           d="m 505.25195,150.74712 -8.82812,21.81641 h -3.69141 l -8.76953,-21.81641 h 3.98438 l 6.75781,17.36328 6.69922,-17.36328 z"
           id="path13048" />
        <path
           d="m 526.22852,172.56353 h -3.65235 v -2.32422 q -0.48828,0.33203 -1.32812,0.9375 -0.82032,0.58593 -1.60157,0.9375 -0.91796,0.44922 -2.10937,0.74218 -1.19141,0.3125 -2.79297,0.3125 -2.94922,0 -5,-1.95312 -2.05078,-1.95313 -2.05078,-4.98047 0,-2.48047 1.05469,-4.00391 1.07422,-1.54296 3.04687,-2.42187 1.99219,-0.87891 4.78516,-1.19141 2.79297,-0.3125 5.99609,-0.46875 v -0.5664 q 0,-1.25 -0.44922,-2.07032 -0.42968,-0.82031 -1.25,-1.28906 -0.78125,-0.44922 -1.875,-0.60547 -1.09375,-0.15625 -2.28515,-0.15625 -1.44532,0 -3.22266,0.39063 -1.77734,0.37109 -3.67187,1.09375 h -0.19532 v -3.73047 q 1.07422,-0.29297 3.10547,-0.64453 2.03125,-0.35156 4.00391,-0.35156 2.30469,0 4.0039,0.39062 1.71875,0.37109 2.96875,1.28906 1.23047,0.89844 1.875,2.32422 0.64454,1.42578 0.64454,3.53516 z m -3.65235,-5.3711 v -6.07422 q -1.67969,0.0977 -3.96484,0.29297 -2.26563,0.19531 -3.59375,0.56641 -1.58203,0.44922 -2.5586,1.40625 -0.97656,0.9375 -0.97656,2.59765 0,1.875 1.13281,2.83204 1.13282,0.9375 3.45704,0.9375 1.93359,0 3.53515,-0.74219 1.60156,-0.76172 2.96875,-1.81641 z"
           id="path13050" />
        <path
           d="m 551.54102,172.56353 h -3.67188 v -12.42188 q 0,-1.50391 -0.17578,-2.8125 -0.17578,-1.32812 -0.64453,-2.07031 -0.48828,-0.82031 -1.40625,-1.21094 -0.91797,-0.41016 -2.38281,-0.41016 -1.50391,0 -3.14454,0.74219 -1.64062,0.74219 -3.14453,1.89453 v 16.28907 h -3.67187 v -21.81641 h 3.67187 v 2.42187 q 1.71875,-1.42578 3.55469,-2.22656 1.83594,-0.80078 3.76953,-0.80078 3.53516,0 5.39063,2.12891 1.85547,2.1289 1.85547,6.13281 z"
           id="path13052" />
      </g>
    </g>
  </g>
</svg>
